<mxfile host="app.diagrams.net" modified="2023-01-30T10:17:24.470Z" agent="5.0 (Windows NT 10.0; Win64; x64) AppleWebKit/537.36 (KHTML, like Gecko) Chrome/109.0.0.0 Safari/537.36" etag="vC91gPyvX8COTTAcLtaT" version="20.8.13" type="github">
  <diagram name="Page-1" id="74e2e168-ea6b-b213-b513-2b3c1d86103e">
    <mxGraphModel dx="1341" dy="881" grid="1" gridSize="10" guides="1" tooltips="1" connect="1" arrows="1" fold="1" page="1" pageScale="1" pageWidth="1100" pageHeight="850" background="none" math="0" shadow="0">
      <root>
        <mxCell id="0" />
        <mxCell id="1" parent="0" />
        <mxCell id="Qp-PSAci6rta7nR8BOjH-1" value="游戏服/客户端" style="rounded=0;whiteSpace=wrap;html=1;" vertex="1" parent="1">
          <mxGeometry x="470" y="80" width="120" height="60" as="geometry" />
        </mxCell>
        <mxCell id="Qp-PSAci6rta7nR8BOjH-7" value="" style="edgeStyle=orthogonalEdgeStyle;rounded=0;orthogonalLoop=1;jettySize=auto;html=1;startArrow=none;" edge="1" parent="1" source="Qp-PSAci6rta7nR8BOjH-8" target="Qp-PSAci6rta7nR8BOjH-6">
          <mxGeometry relative="1" as="geometry" />
        </mxCell>
        <mxCell id="Qp-PSAci6rta7nR8BOjH-13" style="edgeStyle=orthogonalEdgeStyle;rounded=0;orthogonalLoop=1;jettySize=auto;html=1;exitX=0.75;exitY=0;exitDx=0;exitDy=0;entryX=0.75;entryY=1;entryDx=0;entryDy=0;" edge="1" parent="1" source="Qp-PSAci6rta7nR8BOjH-2" target="Qp-PSAci6rta7nR8BOjH-1">
          <mxGeometry relative="1" as="geometry" />
        </mxCell>
        <mxCell id="Qp-PSAci6rta7nR8BOjH-2" value="接收" style="rounded=0;whiteSpace=wrap;html=1;" vertex="1" parent="1">
          <mxGeometry x="470" y="280" width="120" height="60" as="geometry" />
        </mxCell>
        <mxCell id="Qp-PSAci6rta7nR8BOjH-4" value="" style="endArrow=classic;html=1;rounded=0;" edge="1" parent="1" source="Qp-PSAci6rta7nR8BOjH-1" target="Qp-PSAci6rta7nR8BOjH-2">
          <mxGeometry width="50" height="50" relative="1" as="geometry">
            <mxPoint x="460" y="200" as="sourcePoint" />
            <mxPoint x="520" y="170" as="targetPoint" />
          </mxGeometry>
        </mxCell>
        <mxCell id="Qp-PSAci6rta7nR8BOjH-22" value="" style="edgeStyle=orthogonalEdgeStyle;rounded=0;orthogonalLoop=1;jettySize=auto;html=1;" edge="1" parent="1" source="Qp-PSAci6rta7nR8BOjH-6" target="Qp-PSAci6rta7nR8BOjH-21">
          <mxGeometry relative="1" as="geometry" />
        </mxCell>
        <mxCell id="Qp-PSAci6rta7nR8BOjH-6" value="redis消息队列" style="whiteSpace=wrap;html=1;rounded=0;" vertex="1" parent="1">
          <mxGeometry x="470" y="420" width="120" height="60" as="geometry" />
        </mxCell>
        <mxCell id="Qp-PSAci6rta7nR8BOjH-9" value="" style="edgeStyle=orthogonalEdgeStyle;rounded=0;orthogonalLoop=1;jettySize=auto;html=1;endArrow=none;" edge="1" parent="1" source="Qp-PSAci6rta7nR8BOjH-2" target="Qp-PSAci6rta7nR8BOjH-8">
          <mxGeometry relative="1" as="geometry">
            <mxPoint x="530" y="340" as="sourcePoint" />
            <mxPoint x="530" y="420" as="targetPoint" />
          </mxGeometry>
        </mxCell>
        <mxCell id="Qp-PSAci6rta7nR8BOjH-12" style="edgeStyle=orthogonalEdgeStyle;rounded=0;orthogonalLoop=1;jettySize=auto;html=1;exitX=1;exitY=0.5;exitDx=0;exitDy=0;entryX=1;entryY=0.5;entryDx=0;entryDy=0;" edge="1" parent="1" source="Qp-PSAci6rta7nR8BOjH-8" target="Qp-PSAci6rta7nR8BOjH-2">
          <mxGeometry relative="1" as="geometry">
            <Array as="points">
              <mxPoint x="610" y="380" />
              <mxPoint x="610" y="310" />
            </Array>
          </mxGeometry>
        </mxCell>
        <mxCell id="Qp-PSAci6rta7nR8BOjH-8" value="成功与否" style="rhombus;whiteSpace=wrap;html=1;rounded=0;" vertex="1" parent="1">
          <mxGeometry x="510" y="360" width="40" height="40" as="geometry" />
        </mxCell>
        <mxCell id="Qp-PSAci6rta7nR8BOjH-16" value="失败则由接收端响应" style="text;html=1;strokeColor=none;fillColor=none;align=center;verticalAlign=middle;whiteSpace=wrap;rounded=0;" vertex="1" parent="1">
          <mxGeometry x="600" y="330" width="60" height="30" as="geometry" />
        </mxCell>
        <mxCell id="Qp-PSAci6rta7nR8BOjH-17" value="响应" style="text;html=1;strokeColor=none;fillColor=none;align=center;verticalAlign=middle;whiteSpace=wrap;rounded=0;" vertex="1" parent="1">
          <mxGeometry x="560" y="190" width="60" height="30" as="geometry" />
        </mxCell>
        <mxCell id="Qp-PSAci6rta7nR8BOjH-18" value="上报" style="text;html=1;strokeColor=none;fillColor=none;align=center;verticalAlign=middle;whiteSpace=wrap;rounded=0;" vertex="1" parent="1">
          <mxGeometry x="460" y="190" width="60" height="30" as="geometry" />
        </mxCell>
        <mxCell id="Qp-PSAci6rta7nR8BOjH-24" value="" style="edgeStyle=orthogonalEdgeStyle;rounded=0;orthogonalLoop=1;jettySize=auto;html=1;" edge="1" parent="1" source="Qp-PSAci6rta7nR8BOjH-21" target="Qp-PSAci6rta7nR8BOjH-23">
          <mxGeometry relative="1" as="geometry" />
        </mxCell>
        <mxCell id="Qp-PSAci6rta7nR8BOjH-21" value="处理" style="whiteSpace=wrap;html=1;rounded=0;" vertex="1" parent="1">
          <mxGeometry x="470" y="560" width="120" height="60" as="geometry" />
        </mxCell>
        <mxCell id="Qp-PSAci6rta7nR8BOjH-38" value="" style="edgeStyle=orthogonalEdgeStyle;rounded=0;orthogonalLoop=1;jettySize=auto;html=1;" edge="1" parent="1" source="Qp-PSAci6rta7nR8BOjH-23" target="Qp-PSAci6rta7nR8BOjH-37">
          <mxGeometry relative="1" as="geometry" />
        </mxCell>
        <mxCell id="Qp-PSAci6rta7nR8BOjH-41" style="edgeStyle=orthogonalEdgeStyle;rounded=0;orthogonalLoop=1;jettySize=auto;html=1;exitX=0;exitY=1;exitDx=0;exitDy=0;entryX=0.633;entryY=0.017;entryDx=0;entryDy=0;entryPerimeter=0;" edge="1" parent="1" source="Qp-PSAci6rta7nR8BOjH-23" target="Qp-PSAci6rta7nR8BOjH-36">
          <mxGeometry relative="1" as="geometry" />
        </mxCell>
        <mxCell id="Qp-PSAci6rta7nR8BOjH-42" style="edgeStyle=orthogonalEdgeStyle;rounded=0;orthogonalLoop=1;jettySize=auto;html=1;exitX=1;exitY=1;exitDx=0;exitDy=0;entryX=0.383;entryY=-0.017;entryDx=0;entryDy=0;entryPerimeter=0;" edge="1" parent="1" source="Qp-PSAci6rta7nR8BOjH-23" target="Qp-PSAci6rta7nR8BOjH-39">
          <mxGeometry relative="1" as="geometry" />
        </mxCell>
        <mxCell id="Qp-PSAci6rta7nR8BOjH-23" value="主库" style="whiteSpace=wrap;html=1;rounded=0;" vertex="1" parent="1">
          <mxGeometry x="470" y="700" width="120" height="60" as="geometry" />
        </mxCell>
        <mxCell id="Qp-PSAci6rta7nR8BOjH-27" style="edgeStyle=orthogonalEdgeStyle;rounded=0;orthogonalLoop=1;jettySize=auto;html=1;exitX=1;exitY=0.5;exitDx=0;exitDy=0;entryX=1;entryY=0.25;entryDx=0;entryDy=0;" edge="1" parent="1" source="Qp-PSAci6rta7nR8BOjH-25" target="Qp-PSAci6rta7nR8BOjH-6">
          <mxGeometry relative="1" as="geometry">
            <Array as="points">
              <mxPoint x="610" y="665" />
              <mxPoint x="610" y="435" />
            </Array>
          </mxGeometry>
        </mxCell>
        <mxCell id="Qp-PSAci6rta7nR8BOjH-25" value="成功与否" style="rhombus;whiteSpace=wrap;html=1;" vertex="1" parent="1">
          <mxGeometry x="505" y="640" width="45" height="50" as="geometry" />
        </mxCell>
        <mxCell id="Qp-PSAci6rta7nR8BOjH-28" value="失败则弹回消息队列 多次失败则进入失败队列不再处理&lt;br&gt;" style="text;html=1;strokeColor=none;fillColor=none;align=center;verticalAlign=middle;whiteSpace=wrap;rounded=0;" vertex="1" parent="1">
          <mxGeometry x="610" y="510" width="60" height="30" as="geometry" />
        </mxCell>
        <mxCell id="Qp-PSAci6rta7nR8BOjH-31" style="edgeStyle=orthogonalEdgeStyle;rounded=0;orthogonalLoop=1;jettySize=auto;html=1;exitX=0.5;exitY=1;exitDx=0;exitDy=0;" edge="1" parent="1" source="Qp-PSAci6rta7nR8BOjH-29" target="Qp-PSAci6rta7nR8BOjH-30">
          <mxGeometry relative="1" as="geometry" />
        </mxCell>
        <mxCell id="Qp-PSAci6rta7nR8BOjH-29" value="支持平台查询" style="rounded=0;whiteSpace=wrap;html=1;" vertex="1" parent="1">
          <mxGeometry x="840" y="80" width="120" height="60" as="geometry" />
        </mxCell>
        <mxCell id="Qp-PSAci6rta7nR8BOjH-32" style="edgeStyle=orthogonalEdgeStyle;rounded=0;orthogonalLoop=1;jettySize=auto;html=1;exitX=0.5;exitY=1;exitDx=0;exitDy=0;entryX=1;entryY=0.5;entryDx=0;entryDy=0;" edge="1" parent="1" source="Qp-PSAci6rta7nR8BOjH-30" target="Qp-PSAci6rta7nR8BOjH-23">
          <mxGeometry relative="1" as="geometry" />
        </mxCell>
        <mxCell id="Qp-PSAci6rta7nR8BOjH-33" style="edgeStyle=orthogonalEdgeStyle;rounded=0;orthogonalLoop=1;jettySize=auto;html=1;exitX=0.75;exitY=0;exitDx=0;exitDy=0;entryX=0.75;entryY=1;entryDx=0;entryDy=0;" edge="1" parent="1" source="Qp-PSAci6rta7nR8BOjH-30" target="Qp-PSAci6rta7nR8BOjH-29">
          <mxGeometry relative="1" as="geometry" />
        </mxCell>
        <mxCell id="Qp-PSAci6rta7nR8BOjH-30" value="查询器" style="rounded=0;whiteSpace=wrap;html=1;" vertex="1" parent="1">
          <mxGeometry x="840" y="350" width="120" height="60" as="geometry" />
        </mxCell>
        <mxCell id="Qp-PSAci6rta7nR8BOjH-34" value="查询" style="text;html=1;strokeColor=none;fillColor=none;align=center;verticalAlign=middle;whiteSpace=wrap;rounded=0;" vertex="1" parent="1">
          <mxGeometry x="840" y="200" width="60" height="30" as="geometry" />
        </mxCell>
        <mxCell id="Qp-PSAci6rta7nR8BOjH-35" value="响应" style="text;html=1;strokeColor=none;fillColor=none;align=center;verticalAlign=middle;whiteSpace=wrap;rounded=0;" vertex="1" parent="1">
          <mxGeometry x="940" y="200" width="60" height="30" as="geometry" />
        </mxCell>
        <mxCell id="Qp-PSAci6rta7nR8BOjH-36" value="从库" style="whiteSpace=wrap;html=1;rounded=0;" vertex="1" parent="1">
          <mxGeometry x="350" y="810" width="120" height="60" as="geometry" />
        </mxCell>
        <mxCell id="Qp-PSAci6rta7nR8BOjH-37" value="从库" style="whiteSpace=wrap;html=1;rounded=0;" vertex="1" parent="1">
          <mxGeometry x="480" y="810" width="120" height="60" as="geometry" />
        </mxCell>
        <mxCell id="Qp-PSAci6rta7nR8BOjH-39" value="从库" style="whiteSpace=wrap;html=1;rounded=0;" vertex="1" parent="1">
          <mxGeometry x="610" y="810" width="120" height="60" as="geometry" />
        </mxCell>
        <mxCell id="Qp-PSAci6rta7nR8BOjH-44" value="采用负载均衡的方式执行查询器构建的sql" style="text;html=1;strokeColor=none;fillColor=none;align=center;verticalAlign=middle;whiteSpace=wrap;rounded=0;" vertex="1" parent="1">
          <mxGeometry x="900" y="510" width="60" height="30" as="geometry" />
        </mxCell>
      </root>
    </mxGraphModel>
  </diagram>
</mxfile>
